<?xml version="1.0" encoding="UTF-8" ?>
<!DOCTYPE svg PUBLIC "-//W3C//DTD SVG 1.1//EN" "http://www.w3.org/Graphics/SVG/1.1/DTD/svg11.dtd">
<svg width="512pt" height="512pt" viewBox="0 0 512 512" version="1.1" xmlns="http://www.w3.org/2000/svg">
<path fill="#2f4a99" d=" M 0.00 0.00 L 512.00 0.00 L 512.00 512.00 L 0.00 512.00 L 0.00 0.00 Z" />
<path fill="#cadde4" d=" M 100.32 81.22 C 117.11 72.05 137.44 69.75 155.89 74.74 C 182.56 81.58 204.27 104.20 210.15 131.08 C 200.20 133.11 190.26 135.23 180.27 137.05 C 177.33 125.09 169.28 114.57 158.57 108.52 C 145.82 101.17 129.39 100.73 116.24 107.34 C 105.34 112.62 96.78 122.51 93.13 134.07 C 88.68 147.30 91.00 162.53 99.05 173.91 C 107.31 186.15 121.82 193.27 136.46 193.56 C 136.22 203.63 136.38 213.71 136.35 223.79 C 123.95 223.84 111.63 229.06 103.20 238.20 C 93.07 248.86 88.59 264.69 91.98 279.04 C 94.31 289.64 100.64 299.28 109.37 305.71 C 121.51 314.88 138.49 317.11 152.61 311.49 C 169.66 304.81 180.99 287.12 181.59 269.05 C 182.22 251.29 188.67 233.68 200.20 220.10 C 211.23 206.85 226.98 197.57 243.98 194.58 C 263.12 190.98 283.59 195.33 299.61 206.39 C 319.71 220.12 332.22 243.76 333.19 267.98 C 333.53 282.08 340.00 296.09 351.09 304.93 C 359.12 311.52 369.62 314.94 379.99 314.52 C 394.42 314.24 408.41 306.41 416.29 294.33 C 423.82 283.26 425.91 268.75 421.98 255.97 C 417.57 240.67 404.52 228.05 388.86 224.75 C 383.64 223.55 378.27 223.94 372.97 223.74 C 353.61 222.73 334.95 213.44 322.16 198.93 C 311.12 186.58 304.27 170.56 303.00 154.04 C 301.69 138.02 305.64 121.60 314.17 107.97 C 321.22 96.67 331.27 87.24 343.05 81.01 C 359.99 71.89 380.47 69.73 398.98 74.95 C 425.43 82.03 447.24 104.53 452.80 131.43 C 442.85 133.24 432.99 135.54 423.03 137.28 C 420.00 124.78 411.31 113.87 399.93 107.93 C 389.48 102.27 376.77 101.24 365.42 104.59 C 352.91 108.39 342.18 117.80 337.04 129.84 C 332.25 140.50 331.99 153.04 336.08 163.96 C 341.05 177.57 352.83 188.76 367.04 192.12 C 373.85 194.04 380.99 192.87 387.93 193.79 C 406.12 195.73 423.35 204.87 435.34 218.66 C 447.06 231.87 453.91 249.31 454.30 266.96 C 454.79 281.66 450.94 296.52 443.12 309.00 C 434.16 323.61 420.12 335.05 403.93 340.70 C 385.10 347.48 363.56 346.33 345.63 337.41 C 323.72 326.76 308.13 304.91 304.00 281.03 C 302.47 273.70 303.22 266.08 301.16 258.85 C 298.02 246.53 289.89 235.43 278.70 229.27 C 264.72 221.43 246.37 222.10 233.10 231.13 C 220.24 239.61 212.45 254.73 212.09 270.03 C 211.34 286.41 205.72 302.60 195.66 315.60 C 184.42 330.43 167.47 340.87 149.09 343.96 C 131.99 346.89 113.90 343.87 98.84 335.19 C 86.12 328.01 75.63 317.03 68.92 304.07 C 60.11 287.30 58.17 267.17 63.20 248.95 C 67.47 232.86 77.55 218.65 90.64 208.48 C 76.16 197.85 65.90 181.67 62.19 164.11 C 58.36 146.50 60.97 127.51 69.67 111.70 C 76.64 98.85 87.46 88.15 100.32 81.22 Z" />
<path fill="#cadde5" d=" M 83.45 382.51 C 88.85 378.64 95.48 376.73 102.09 376.63 C 102.12 380.31 102.20 383.99 101.97 387.66 C 90.98 387.52 80.90 396.97 80.54 407.99 C 80.49 418.62 80.44 429.26 80.61 439.90 C 76.88 440.04 73.14 440.04 69.41 439.89 C 69.64 429.58 69.45 419.26 69.51 408.95 C 69.52 398.58 74.86 388.35 83.45 382.51 Z" />
<path fill="#cadde4" d=" M 120.23 379.28 C 131.64 374.27 145.76 376.67 154.94 385.07 C 163.29 392.45 166.89 404.09 165.46 415.01 C 147.65 414.63 129.82 414.96 112.01 414.84 C 112.22 415.33 112.64 416.33 112.84 416.82 C 115.80 425.29 124.32 430.89 133.16 431.19 C 133.17 434.77 133.17 438.36 133.18 441.95 C 117.73 442.39 103.30 430.19 100.95 414.96 C 98.17 400.47 106.58 384.87 120.23 379.28 Z" />
<path fill="#cadde5" d=" M 183.68 384.73 C 194.05 375.41 210.58 374.11 222.28 381.69 C 231.61 387.37 237.61 398.04 237.63 408.96 C 237.68 419.29 237.57 429.61 237.69 439.94 C 233.99 440.01 230.30 440.00 226.61 440.00 C 226.55 429.32 226.69 418.64 226.58 407.97 C 226.16 396.59 215.37 386.97 204.03 387.80 C 193.31 388.01 183.90 397.45 183.47 408.11 C 183.31 418.73 183.47 429.37 183.40 440.00 C 179.77 440.00 176.14 440.00 172.51 440.00 C 172.52 429.67 172.54 419.35 172.51 409.02 C 172.41 399.79 176.72 390.73 183.68 384.73 Z" />
<path fill="#cadde4" d=" M 246.18 407.02 C 246.82 391.39 260.49 377.73 276.08 376.86 C 293.12 375.05 309.75 388.95 311.04 406.03 C 311.51 417.34 311.08 428.68 311.26 440.00 C 307.57 440.00 303.89 440.00 300.20 439.95 C 300.27 429.63 300.28 419.30 300.22 408.98 C 300.12 402.03 296.47 395.24 290.63 391.46 C 285.28 387.77 278.20 386.74 272.03 388.80 C 263.44 391.46 257.02 399.97 257.04 408.99 C 256.98 419.33 257.01 429.66 257.01 439.99 C 253.37 440.00 249.73 440.00 246.09 439.97 C 246.22 428.99 246.03 418.00 246.18 407.02 Z" />
<path fill="#cadde5" d=" M 328.42 385.38 C 338.83 375.34 356.11 373.82 368.15 381.81 C 375.47 386.47 380.81 394.12 382.51 402.65 C 383.39 406.69 383.10 410.84 383.33 414.95 C 365.39 414.73 347.45 414.88 329.51 414.87 L 330.01 416.01 C 332.82 424.83 341.51 430.89 350.67 431.20 C 350.65 434.78 350.64 438.36 350.63 441.94 C 339.91 442.08 329.33 436.47 323.50 427.48 C 314.61 414.72 316.82 395.74 328.42 385.38 Z" />
<path fill="#cadde4" d=" M 389.95 409.34 C 389.64 393.93 401.72 379.50 416.96 377.15 C 426.82 375.34 437.10 378.60 444.63 385.09 C 441.95 387.68 438.86 389.79 436.04 392.20 C 430.80 388.55 424.19 386.66 417.87 388.22 C 408.14 390.17 400.90 399.49 400.89 409.35 C 397.24 409.41 393.60 409.41 389.95 409.34 Z" />
<path fill="#2f4a99" d=" M 112.01 403.52 C 114.66 395.59 121.52 388.92 130.02 387.91 C 140.55 386.14 151.31 393.53 154.02 403.74 C 140.02 403.61 125.99 404.03 112.01 403.52 Z" />
<path fill="#2f4999" d=" M 329.72 403.77 C 332.23 393.36 343.41 386.02 353.97 387.96 C 362.37 389.13 369.02 395.76 371.70 403.59 C 357.71 403.94 343.71 403.61 329.72 403.77 Z" />
<path fill="#cadde4" d=" M 428.17 409.22 C 431.74 409.27 435.31 409.28 438.89 409.26 C 439.04 419.97 433.45 430.49 424.53 436.41 C 412.50 444.82 394.86 443.50 384.24 433.36 C 387.22 431.11 390.06 428.69 393.02 426.42 C 399.00 430.97 407.33 432.48 414.31 429.39 C 422.54 426.29 427.74 417.83 428.17 409.22 Z" />
<path fill="#1f3b81" d=" M 112.01 414.84 C 129.82 414.96 147.65 414.63 165.46 415.01 L 166.18 415.62 C 153.50 416.45 140.75 415.82 128.04 416.00 C 122.98 416.20 117.75 415.22 112.84 416.82 C 112.64 416.33 112.22 415.33 112.01 414.84 Z" />
<path fill="#1d3a80" d=" M 329.51 414.87 C 347.45 414.88 365.39 414.73 383.33 414.95 C 382.97 415.19 382.25 415.68 381.89 415.92 C 364.61 416.11 347.30 415.91 330.01 416.01 L 329.51 414.87 Z" />
</svg>
